<svg id="visual" viewBox="0 0 1000 800" width="1000" height="800" xmlns="http://www.w3.org/2000/svg" xmlns:xlink="http://www.w3.org/1999/xlink" version="1.1"><rect x="0" y="0" width="1000" height="800" fill="#432C7A"></rect><defs><linearGradient id="grad1_0" x1="20%" y1="0%" x2="100%" y2="100%"><stop offset="25%" stop-color="#432c7a" stop-opacity="1"></stop><stop offset="75%" stop-color="#432c7a" stop-opacity="1"></stop></linearGradient></defs><defs><linearGradient id="grad2_0" x1="0%" y1="0%" x2="80%" y2="100%"><stop offset="25%" stop-color="#432c7a" stop-opacity="1"></stop><stop offset="75%" stop-color="#432c7a" stop-opacity="1"></stop></linearGradient></defs><g transform="translate(1000, 0)"><path d="M0 564C-52.2 568.5 -104.3 573 -146.2 545.7C-188.2 518.5 -219.9 459.4 -234.5 406.2C-249.1 353 -246.7 305.6 -290.6 290.6C-334.5 275.6 -424.8 293 -472.8 273C-520.9 253 -526.8 195.6 -537.1 143.9C-547.3 92.2 -561.8 46.1 -576.3 0L0 0Z" fill="#FF8FB1"></path></g><g transform="translate(0, 800)"><path d="M0 -532C42.7 -501.8 85.3 -471.7 118 -440.5C150.7 -409.2 173.5 -377 212 -367.2C250.5 -357.4 304.8 -370.1 364.2 -364.2C423.5 -358.2 487.8 -333.7 499.1 -288.1C510.3 -242.6 468.5 -176 464.6 -124.5C460.7 -73 494.9 -36.5 529 0L0 0Z" fill="#FF8FB1"></path></g></svg>